<svg xmlns="http://www.w3.org/2000/svg" xml:space="preserve" width="64" height="64" style="shape-rendering:geometricPrecision;text-rendering:geometricPrecision;image-rendering:optimizeQuality;fill-rule:evenodd;clip-rule:evenodd"><defs><style>.fil0{fill:#0e6096}</style></defs><g id="Layer_x0020_1"><path id="_744314704" d="M12.22 48.81c-4.53 0-8.2-3.67-8.2-8.2 0-4.48 3.59-8.13 8.06-8.2.53-8.01 7.19-14.33 15.32-14.33 6.57 0 12.18 4.12 14.37 9.92a10.8 10.8 0 0 1 1.89-.17c5.33 0 9.74 3.98 10.4 9.13a5.92 5.92 0 0 1 5.92 5.92c0 3.23-2.57 5.85-5.77 5.92-14 .2-27.99.01-41.99.01z" style="fill:#1ab5ed"/></g></svg>